<?xml version="1.0" encoding="UTF-8" standalone="no"?>
<!-- Created with Inkscape (http://www.inkscape.org/) -->

<svg
   xmlns:dc="http://purl.org/dc/elements/1.1/"
   xmlns:cc="http://creativecommons.org/ns#"
   xmlns:rdf="http://www.w3.org/1999/02/22-rdf-syntax-ns#"
   xmlns:svg="http://www.w3.org/2000/svg"
   xmlns="http://www.w3.org/2000/svg"
   xmlns:sodipodi="http://sodipodi.sourceforge.net/DTD/sodipodi-0.dtd"
   xmlns:inkscape="http://www.inkscape.org/namespaces/inkscape"
   width="270.06277"
   height="270.03162"
   id="svg2"
   version="1.1"
   inkscape:version="0.48.4 r9939"
   sodipodi:docname="wally.svg">
  <defs
     id="defs4">
    <linearGradient
       id="linearGradient3978">
      <stop
         style="stop-color:#12db00;stop-opacity:1;"
         offset="0"
         id="stop3980" />
      <stop
         id="stop3986"
         offset="0"
         style="stop-color:#12db00;stop-opacity:0.03278688;" />
      <stop
         style="stop-color:#12db00;stop-opacity:0;"
         offset="0.97826087"
         id="stop3988" />
      <stop
         style="stop-color:#12db00;stop-opacity:1;"
         offset="1"
         id="stop3982" />
    </linearGradient>
  </defs>
  <sodipodi:namedview
     id="base"
     pagecolor="#ffffff"
     bordercolor="#666666"
     borderopacity="1.0"
     inkscape:pageopacity="0.0"
     inkscape:pageshadow="2"
     inkscape:zoom="0.76095915"
     inkscape:cx="-211.98438"
     inkscape:cy="-48.745634"
     inkscape:document-units="px"
     inkscape:current-layer="layer1"
     showgrid="false"
     inkscape:window-width="1680"
     inkscape:window-height="995"
     inkscape:window-x="-2"
     inkscape:window-y="-3"
     inkscape:window-maximized="1"
     fit-margin-top="5"
     fit-margin-left="5"
     fit-margin-right="5"
     fit-margin-bottom="5" />
  <metadata
     id="metadata7">
    <rdf:RDF>
      <cc:Work
         rdf:about="">
        <dc:format>image/svg+xml</dc:format>
        <dc:type
           rdf:resource="http://purl.org/dc/dcmitype/StillImage" />
        <dc:title></dc:title>
      </cc:Work>
    </rdf:RDF>
  </metadata>
  <g
     inkscape:label="Layer 1"
     inkscape:groupmode="layer"
     id="layer1"
     transform="translate(-97.15625,-93.65625)">
    <path
       sodipodi:type="arc"
       style="fill:#5b97ff;fill-opacity:1;stroke:#000000;stroke-width:4;stroke-linecap:butt;stroke-linejoin:miter;stroke-miterlimit:4;stroke-opacity:1;stroke-dasharray:none"
       id="path3060"
       sodipodi:cx="236.18712"
       sodipodi:cy="228.68443"
       sodipodi:rx="128.01738"
       sodipodi:ry="128.01738"
       d="m 364.2045,228.68443 a 128.01738,128.01738 0 1 1 -256.03476,0 128.01738,128.01738 0 1 1 256.03476,0 z"
       transform="translate(-4,0)" />
    <path
       style="fill:#ff0000;stroke:none;stroke-width:1px;stroke-linecap:butt;stroke-linejoin:miter;stroke-opacity:1;fill-opacity:1"
       d="m 90.367708,247.26546 13.706152,3.94923 72.71233,0.92923 19.74615,-3.48462 7.66616,-6.73692 -40.18924,-9.52462 -25.78616,3.02 -18.81692,1.85847 z"
       id="path4821"
       inkscape:connector-curvature="0"
       transform="translate(97.15625,93.65625)" />
    <path
       style="fill:#ffffff;fill-opacity:1;stroke:none"
       d="m 182.66421,342.07439 127.4707,0 -17.74077,13.79838 -113.67233,0 4.73382,-13.9241 z"
       id="path3838"
       inkscape:connector-curvature="0"
       sodipodi:nodetypes="cccccc" />
    <path
       style="fill:#ffd6c1;fill-opacity:1;stroke:#000000;stroke-width:1px;stroke-linecap:butt;stroke-linejoin:miter;stroke-opacity:1"
       d="m 226.03053,326.96188 -0.65707,-19.71196 -13.79837,-10.51305 -9.19892,-34.1674 -3.94239,2.62826 -5.91359,0 -7.22772,-26.28262 -7.88479,-4.59946 -0.65706,-7.88478 2.62826,-1.31414 3.28533,-3.28532 7.88478,7.88478 1.31413,-19.71196 7.88479,7.88478 1.31413,-17.0837 5.91359,6.57066 6.57065,-19.71197 13.79838,14.45544 9.85598,5.91359 11.17011,0.65707 23.65436,-7.88479 0,5.25653 6.57066,16.42663 9.85598,-5.25652 6.57065,3.94239 -3.94239,11.17011 -4.59946,0.65707 -3.94239,24.31142 -1.31413,3.28533 -7.88479,-0.65706 -7.22772,35.48153 -9.85598,12.48425 1.9712,17.74076 -9.85599,3.9424 z"
       id="path3858"
       inkscape:connector-curvature="0" />
    <path
       style="fill:#ffffff;fill-opacity:1;stroke:none"
       d="m 246.39956,219.20315 11.17011,-6.57066 15.11251,8.54185 c 0,0 1.31413,10.51305 1.31413,13.14131 0,2.62826 -7.88479,10.51305 -7.88479,10.51305 l -13.79837,-0.65707 -12.48425,-9.19891 -3.28532,-4.59946 c 0,0 -1.31414,0 -2.62827,3.28533 -1.31413,3.28532 -13.14131,15.1125 -13.14131,15.1125 l -14.45544,0 -7.22772,-10.51305 -1.31413,-15.1125 12.48425,-5.91359 10.51304,0 9.19892,9.85598 8.54185,2.62826 z"
       id="path3860"
       inkscape:connector-curvature="0" />
    <path
       style="fill:#ffffff;fill-opacity:1;stroke:none"
       d="m 164.92344,193.57759 c 0,-4.59946 8.54185,-5.91359 8.54185,-5.91359 l 22.34023,-11.82718 15.1125,-8.54185 4.59946,-5.91359 26.93968,-9.19891 8.54186,-5.91359 -7.22772,-1.9712 -13.79838,-1.31413 -14.45544,5.25652 -21.68316,2.62826 -19.0549,9.19892 -7.22772,16.42664 z"
       id="path3862"
       inkscape:connector-curvature="0" />
    <path
       style="fill:#7e3220;fill-opacity:1;stroke:none"
       d="m 176.09355,210.00423 6.57066,10.51305 9.85598,9.19891 -3.28533,-19.0549 8.54185,8.54186 2.62826,-21.0261 5.25653,10.51305 7.22772,-21.68316 12.48424,11.17011 2.62826,6.57065 18.39784,4.59946 22.34022,-6.57065 12.48425,22.34022 7.88478,-7.88478 1.31414,-9.85598 10.51304,3.94239 9.85599,-1.9712 -6.57066,-7.88478 5.91359,-3.28533 -7.22772,-3.94239 8.54185,-4.59946 -7.22772,-4.59946 6.57066,-5.91359 -7.22773,-3.28533 3.28533,-7.22772 -9.19891,-0.65706 -11.82718,-5.25653 -26.28262,1.31413 -36.79567,15.76958 -18.39783,10.51304 z"
       id="path3864"
       inkscape:connector-curvature="0" />
    <path
       style="fill:#ff0000;stroke:none;stroke-width:1px;stroke-linecap:butt;stroke-linejoin:miter;stroke-opacity:1;fill-opacity:1"
       d="m 76.661552,118.10236 -9.756925,-12.77693 3.252309,-7.201537 59.703084,-33.916929 24.16001,-11.150771 11.61538,5.11077 3.94924,9.524617 -29.73539,11.847695 -28.80616,18.584618 -14.170775,5.807697 z"
       id="path4815"
       inkscape:connector-curvature="0"
       transform="translate(97.15625,93.65625)" />
    <path
       style="fill:#ff0000;stroke:#000000;stroke-width:2.8;stroke-linecap:butt;stroke-linejoin:miter;stroke-opacity:1;fill-opacity:1;stroke-miterlimit:4;stroke-dasharray:none"
       d="m 63.884627,51.197731 11.150771,-6.736924 10.453848,1.393846 6.040001,6.736925 -1.393846,6.040001 -18.816927,14.403079 -6.504616,-3.949231 c 0,0 -3.020001,-5.11077 -3.020001,-10.686156 0,-5.575386 2.09077,-7.20154 2.09077,-7.20154 z"
       id="path4817"
       inkscape:connector-curvature="0"
       transform="translate(97.15625,93.65625)" />
    <path
       style="fill:#000000;fill-opacity:1;stroke:#000000;stroke-opacity:1"
       d="m 177.46375,343.74452 c -1.5067,-1.10704 -1.39062,-1.34262 1.13709,-2.30761 1.5483,-0.59108 3.24191,-1.0747 3.76357,-1.0747 0.52166,0 1.72986,-0.43495 2.6849,-0.96656 1.76816,-0.98422 11.84266,-4.765 18.30743,-6.87044 1.96405,-0.63965 4.43905,-1.1687 5.5,-1.17567 2.3505,-0.0154 13.55571,-5.58766 14.62735,-7.27402 0.9108,-1.43327 0.88042,-9.2778 -0.048,-12.40069 -0.35768,-1.20306 -2.5506,-3.55953 -4.87316,-5.23659 -5.15521,-3.72247 -6.67887,-6.66833 -12.79498,-24.7379 l -4.79344,-14.16188 -3.10598,0.50403 c -2.22051,0.36034 -3.56833,-0.0211 -4.72777,-1.33812 -1.33611,-1.51763 -4.4576,-10.16878 -5.42402,-15.03251 -0.79885,-4.0204 -2.76322,-8.30965 -3.8056,-8.30965 -0.67073,0 -2.83844,-1.6875 -4.81714,-3.75 -4.50499,-4.69578 -5.50825,-10.32794 -2.58499,-14.51176 1.06132,-1.51896 2.34525,-2.50491 2.8532,-2.19098 1.61507,0.99817 0.99541,-1.63757 -1.06539,-4.5317 -1.09391,-1.53625 -3.15726,-3.08642 -4.58522,-3.44481 -3.30114,-0.82854 -5.64791,-3.05837 -8.38332,-7.96559 -2.54384,-4.56357 -3.84492,-12.99123 -2.16582,-14.02897 0.62829,-0.3883 1.12328,-3.32772 1.12328,-6.67039 0,-3.53418 0.59228,-6.88119 1.44946,-8.19098 0.7972,-1.21815 1.28163,-3.11482 1.07651,-4.21482 -0.20512,-1.1 -0.40738,-3.0676 -0.44946,-4.37245 -0.064,-1.9837 -0.32021,-2.17019 -1.56378,-1.13812 -1.48963,1.23629 -4.5168,0.76084 -4.5081,-0.70805 0.002,-0.42976 1.39439,-2.26425 3.09299,-4.07665 2.38763,-2.54759 3.3931,-3.04236 4.43145,-2.1806 1.5648,1.29867 3.99497,0.26427 6.88711,-2.93151 1.04159,-1.15094 2.48322,-2.09262 3.20362,-2.09262 0.72041,0 1.78865,-0.89469 2.37388,-1.98819 0.58523,-1.09351 2.17606,-2.26729 3.53518,-2.60841 2.48913,-0.62473 3.46316,-2.4034 1.31615,-2.4034 -0.64125,0 -0.32014,-0.9225 0.72194,-2.07398 1.19715,-1.32283 1.3891,-1.95664 0.52999,-1.75 -0.74082,0.17819 -1.55311,-0.23828 -1.8051,-0.92549 -0.55708,-1.51927 2.64639,-2.93537 3.55908,-1.57331 0.357,0.53277 1.43658,1.25922 2.39908,1.61434 2.1453,0.79152 2.27804,2.56858 0.25,3.34681 -0.825,0.31659 -1.5,1.02561 -1.5,1.57561 0,0.55661 0.77593,0.6847 1.75,0.2889 3.44741,-1.40083 13.86551,-3.15207 20.21269,-3.39767 3.55449,-0.13755 6.88838,-0.51316 7.40865,-0.83471 4.40678,-2.72354 27.14802,-4.35114 29.39533,-2.10383 0.64166,0.64166 3.2243,1.16666 5.73919,1.16666 4.15625,0 5.07056,0.47853 10.0429,5.25615 3.3482,3.21708 5.70276,6.41814 6.06943,8.25145 l 0.59906,2.99532 7.7612,-0.1486 c 4.36301,-0.0835 8.36551,0.33192 9.14138,0.94887 0.75909,0.60361 4.08017,2.09996 7.38017,3.32522 4.63782,1.72198 7.19191,2.09074 11.25,1.62427 5.06179,-0.58185 5.25,-0.51615 5.25,1.83267 0,1.4075 -1.05561,3.26651 -2.5,4.40266 -3.30753,2.6017 -3.15323,3.2379 0.71121,2.93247 4.5142,-0.35679 4.85315,2.44951 0.75791,6.27504 l -3.18742,2.97749 3.10915,0.62183 c 3.74527,0.74905 4.21897,3.7075 0.87979,5.49458 -1.22615,0.65622 -2.90237,1.86612 -3.72492,2.68867 -1.3274,1.3274 -1.07674,1.41698 2.22937,0.79675 3.20479,-0.60122 3.72491,-0.44156 3.72491,1.14343 0,1.01322 -1.33094,2.94611 -2.95765,4.29531 -3.91549,3.24752 -3.78898,4.18378 0.45765,3.38711 2.98754,-0.56046 3.49537,-0.38408 3.4684,1.20469 -0.0174,1.02371 -1.19499,3.18505 -2.61692,4.80298 -2.26953,2.58237 -3.27336,2.9488 -8.2184,3 -3.09819,0.0321 -6.88046,-0.29024 -8.40504,-0.71625 -4.01304,-1.12136 -4.73568,1.61338 -1.35794,5.13898 4.67544,4.8801 3.47039,11.32737 -3.4218,18.30748 -2.21474,2.24298 -2.90543,4.39912 -4.30266,13.43163 -1.87917,12.14806 -3.42165,14.89127 -7.87266,14.00107 -1.52514,-0.30503 -2.77298,-0.1966 -2.77298,0.24095 0,0.43755 -0.92467,5.0388 -2.05482,10.225 -1.13015,5.1862 -2.52581,12.12945 -3.10147,15.42945 -1.11946,6.41736 -3.70483,11.20727 -8.79847,16.30091 -2.93327,2.93327 -3.12465,3.53021 -2.54422,7.93548 1.38319,10.49784 1.08633,10.03958 7.31592,11.2937 3.12568,0.62925 7.48306,1.5965 9.68306,2.14943 2.2,0.55294 5.46667,1.23847 7.25927,1.5234 1.7926,0.28493 3.50665,0.91834 3.80902,1.40757 0.30236,0.48923 2.17525,0.88951 4.16199,0.88951 1.98673,0 4.42026,0.73125 5.40784,1.625 0.98759,0.89375 2.93552,1.625 4.32874,1.625 3.13902,0 3.30914,2.07542 0.28314,3.45409 -2.34544,1.0686 -6.0564,0.22719 -7.20669,-1.63401 -0.36374,-0.58855 -2.40823,-1.07008 -4.54331,-1.07008 -2.13508,0 -4.12935,-0.40028 -4.43171,-0.88951 -0.30237,-0.48923 -2.01642,-1.13213 -3.80902,-1.42866 -3.63994,-0.60211 -6.89676,-1.24522 -14.27129,-2.81809 -3.59215,-0.76615 -6.16626,-0.75819 -9.08637,0.0281 -2.24089,0.60341 -11.62447,1.31222 -20.85239,1.57513 -9.22792,0.26291 -17.28905,0.89898 -17.91363,1.41348 -0.62457,0.5145 -3.83559,1.68193 -7.13559,2.5943 -10.54786,2.91621 -11.88769,3.33697 -18,5.65284 -3.3,1.25032 -6.225,2.57498 -6.5,2.94369 -0.97425,1.30624 -8.15786,1.5337 -9.82199,0.31101 z m 74.32199,-17.30368 c 3.9359,-0.21501 4.65168,-1.45448 3.93965,-6.82205 -0.93108,-7.01883 -2.90167,-7.85013 -23.18965,-9.78265 l -5.25,-0.50008 0.009,3.76307 c 0.0182,7.87135 1.2278,14.16189 2.78159,14.4655 0.83764,0.16367 5.61499,0.002 10.61635,-0.35848 5.00135,-0.36083 9.99337,-0.70522 11.09337,-0.76531 z m -0.50902,-21.66859 c 2.94469,-0.87448 6.42729,-2.29322 7.73911,-3.15276 3.32632,-2.17949 6.04715,-7.97183 7.7488,-16.49633 0.79718,-3.99352 2.82425,-14.01095 4.5046,-22.26095 1.68035,-8.25 3.28159,-16.25842 3.5583,-17.79649 0.27671,-1.53807 1.14984,-5.56875 1.94028,-8.95705 0.79044,-3.38831 1.26027,-6.33745 1.04408,-6.55365 -1.00933,-1.00932 -2.3213,1.12467 -2.89424,4.70764 -0.78955,4.93756 -4.82962,9.83018 -10.09054,12.21989 -10.3317,4.69304 -21.88089,-0.12092 -25.71271,-10.71764 -1.88916,-5.22438 -4.37498,-4.47513 -6.22104,1.87508 -1.81414,6.24045 -5.41034,10.0292 -11.62179,12.24409 -9.31933,3.32309 -19.60209,-0.92552 -23.20135,-9.5863 -1.12812,-2.71456 -2.44113,-4.93557 -2.9178,-4.93557 -1.31327,0 -1.06651,1.42633 1.24786,7.21298 2.46962,6.17483 15.30807,43.95279 16.82159,49.49859 1.46114,5.35389 7.73991,12.25909 12.06387,13.26747 6.14013,1.43194 20.2967,1.12202 25.99098,-0.569 z m -15.41281,-17.38399 c -2.15701,-0.28933 -4.11355,-1.10818 -4.34787,-1.81967 -0.31665,-0.96145 0.30521,-1.10626 2.42183,-0.56398 1.56633,0.4013 4.31037,0.73593 6.09787,0.74362 1.7875,0.008 3.25,0.3215 3.25,0.69735 0,1.10176 -3.20292,1.50858 -7.42183,0.94268 z m 9.42183,-2.02605 c 0,-0.55 0.675,-1 1.5,-1 0.825,0 1.5,0.45 1.5,1 0,0.55 -0.675,1 -1.5,1 -0.825,0 -1.5,-0.45 -1.5,-1 z m -20,-18.36793 c -3.025,-0.66016 -6.92118,-1.91735 -8.65817,-2.79373 -2.88824,-1.45724 -3.29423,-1.45737 -4.75,-0.002 -1.45577,1.45577 -1.59183,1.39833 -1.59183,-0.67211 0,-2.62594 2.87249,-8.62547 3.72269,-7.77527 0.31637,0.31637 1.07069,1.5551 1.67627,2.75272 2.2301,4.41041 8.13062,6.3187 19.60104,6.33917 8.86725,0.0158 11.27556,-0.33872 15.48754,-2.2801 5.95651,-2.74545 9.51246,-5.87638 9.51246,-8.37546 0,-3.07664 1.85073,-2.03862 4.04944,2.27122 2.28912,4.48704 1.90978,5.98322 -1.04856,4.13571 -1.04949,-0.65541 -2.14828,-0.80313 -2.44177,-0.32826 -0.81016,1.31087 -9.48942,5.33534 -14.55911,6.75089 -5.58717,1.56004 -13.78692,1.55099 -21,-0.0232 z m 4.5,-10.34514 c -2.71624,-0.65334 -3.55597,-1.57834 -2.696,-2.96979 0.54419,-0.88053 1.7586,-0.88911 4.95836,-0.035 3.24325,0.86568 5.23493,0.83796 8.48764,-0.11812 6.14983,-1.80763 7.25,-1.83737 7.25,-0.19601 0,2.71026 -11.62171,4.85315 -18,3.31897 z m -30.90264,6.31995 c 0.47227,-1.23072 -4.05096,-15.75928 -6.57129,-21.10688 -0.51843,-1.1 -1.44266,-3.96423 -2.05383,-6.36495 -2.12665,-8.35355 -9.24881,-12.01311 -11.40406,-5.85973 -0.83351,2.37972 -0.59125,3.15616 1.69957,5.44697 3.12417,3.12418 4.21123,2.66773 2.75685,-1.15758 -0.87663,-2.30572 -0.78313,-2.66406 0.62327,-2.38868 1.69573,0.33202 2.25852,1.80965 8.40751,22.07397 3.1018,10.22212 5.10855,13.09234 6.54198,9.35688 z m 80.83687,-4.50047 c 0.57255,-0.9264 4.38197,-22.11638 5.01348,-27.88752 0.35758,-3.26788 2.06821,-6.21889 3.60493,-6.21889 0.44426,0 0.42057,1.35 -0.0526,3 -1.162,4.05165 0.96506,4.02202 3.36865,-0.0469 1.66635,-2.8209 1.68063,-3.22891 0.19256,-5.5 -1.91219,-2.91837 -3.89953,-3.11475 -6.38349,-0.63079 -2.55415,2.55415 -9.98925,33.62052 -8.79267,36.73875 0.61988,1.61538 2.2119,1.90013 3.04918,0.54538 z m -58.116,-13.72112 c 6.60595,-3.15016 9.21209,-11.59263 5.77214,-18.69862 -4.63777,-9.58035 -19.68387,-10.00484 -24.33882,-0.68667 -6.35945,12.7302 5.83125,25.45839 18.56668,19.38529 z m -9.89437,-9.72312 c -1.12842,-2.94062 0.0164,-5.15331 2.83469,-5.47859 2.46138,-0.2841 2.74145,-0.003 2.74145,2.75 0,1.68653 -0.4132,3.06642 -0.91821,3.06642 -0.50502,0 -1.62623,0.27169 -2.49157,0.60375 -0.92913,0.35654 -1.81618,-0.029 -2.16636,-0.94158 z m 51.24423,7.19218 c 5.47913,-1.65232 9.05854,-9.44215 7.3146,-15.91865 -1.4736,-5.4725 -4.35716,-8.50064 -9.45358,-9.92755 -3.91587,-1.09638 -5.15324,-1.04151 -8.91556,0.39533 -5.23527,1.99937 -7.11134,3.93557 -8.32955,8.59652 -2.01185,7.69741 1.75981,15.15684 8.87611,17.55482 3.36673,1.13448 4.72305,1.04407 10.50798,-0.70047 z m -7.64488,-9.84001 c -0.65901,-0.40729 -1.04632,-1.81463 -0.8607,-3.12743 0.45861,-3.24354 5.35481,-3.98306 6.3162,-0.954 0.35771,1.12706 0.40335,2.4489 0.10142,2.93743 -0.80654,1.30502 -4.17451,1.99838 -5.55692,1.144 z m -57.60315,-8.01434 c 0.40831,-1.85035 -0.23999,-3.40951 -2.4948,-6 l -3.04645,-3.5 0.69184,6.5 c 0.38051,3.575 0.91103,6.88068 1.17892,7.34596 0.72428,1.25793 3.03856,-1.48226 3.67049,-4.34596 z m 41.52122,-1.32209 c 1.30558,-3.95593 6.29254,-8.8645 10.81377,-10.64376 7.82967,-3.08125 20.82143,1.44358 23.12599,8.05443 0.5582,1.60128 1.71333,2.91142 2.56694,2.91142 0.85361,0 1.55202,-0.29186 1.55202,-0.64857 0,-0.35671 -2.07067,-4.44725 -4.60148,-9.09009 -4.02184,-7.37817 -4.87212,-8.36009 -6.75,-7.795 -1.18169,0.3556 -6.60141,1.58098 -12.04382,2.72308 -8.9808,1.88464 -10.54339,1.95427 -16.90782,0.75339 -5.91227,-1.11557 -7.57611,-1.90533 -10.60469,-5.03364 -1.97571,-2.04076 -5.60986,-5.78262 -8.0759,-8.31525 -2.46604,-2.53263 -4.93755,-4.4535 -5.49224,-4.2686 -0.5547,0.1849 -1.68703,4.98995 -2.51629,10.6779 -0.82927,5.68794 -2.02826,10.51261 -2.66443,10.72147 -0.63616,0.20887 -2.18152,-1.44375 -3.43414,-3.67247 -1.25261,-2.22872 -2.60768,-4.05222 -3.01127,-4.05222 -0.65261,0 -1.7904,13.94197 -1.21389,14.87443 0.12733,0.20594 1.58737,-0.76645 3.24454,-2.16087 8.8966,-7.486 25.34818,-3.86912 28.56972,6.28104 0.44126,1.39031 1.51218,2.0054 3.49155,2.0054 2.34711,0 3.05011,-0.59103 3.95144,-3.32209 z m -49.96792,-0.92791 c -0.46169,-1.7875 -1.38336,-5.80381 -2.04815,-8.92513 l -1.20872,-5.67514 -3.10824,2.17176 c -1.70954,1.19446 -3.29752,2.28755 -3.52886,2.42907 -0.23133,0.14153 0.46825,1.26805 1.55464,2.50338 1.08639,1.23533 3.19455,4.15856 4.6848,6.49606 3.24262,5.08613 4.82152,5.51817 3.65453,1 z m 89.94757,-8.30623 c -1.70459,-6.55941 -3.09191,-9.44377 -4.54225,-9.44377 -1.51337,0 -1.91041,3.55334 -0.4948,4.42823 0.48613,0.30045 1.86168,2.62646 3.05678,5.16891 2.56023,5.44667 3.41827,5.38022 1.98027,-0.15337 z m 3.67027,-8.06671 c -0.29064,-0.75738 -1.14314,-1.37706 -1.89446,-1.37706 -1.13102,0 -1.09341,1.059 0.21862,6.15584 l 1.58464,6.15584 0.30981,-4.77878 c 0.1704,-2.62833 0.072,-5.39846 -0.21861,-6.15584 z m -86.0912,0.61973 c 0,-3.84906 -0.25906,-6.99795 -0.57569,-6.99754 -0.31662,4.1e-4 -1.60916,1.10084 -2.8723,2.44539 -2.63858,2.80863 -2.3342,5.80197 0.94825,9.32526 1.14271,1.22656 2.17262,2.22899 2.28869,2.22763 0.11608,-10e-4 0.21105,-3.15169 0.21105,-7.00074 z m 91.48469,2.75321 c 0.008,-0.9625 -0.38223,-1.75 -0.86811,-1.75 -1.009,0 -2.10858,4.67467 -1.29172,5.49153 0.75587,0.75587 2.14148,-1.64445 2.15983,-3.74153 z m -109.81523,-2.5 c 2.27135,-1.5125 4.84798,-3.2 5.72584,-3.75 0.87787,-0.55 3.6855,-2.6875 6.23919,-4.75 2.55369,-2.0625 5.03487,-3.75 5.51374,-3.75 0.47887,0 1.43274,-0.9 2.1197,-2 0.68696,-1.1 2.0327,-2.00168 2.99054,-2.00374 0.95784,-0.002 3.28033,-1.01455 5.1611,-2.25 1.88076,-1.23544 4.13076,-2.70317 5,-3.26161 0.86924,-0.55844 3.38043,-2.21855 5.58043,-3.68913 2.2,-1.47058 5.2375,-2.97496 6.75,-3.34306 1.5125,-0.3681 2.75,-1.07049 2.75,-1.56087 0,-0.49037 0.79999,-0.89159 1.77776,-0.89159 0.97777,0 2.54836,-0.9 3.49021,-2 0.94185,-1.1 2.33676,-2 3.0998,-2 0.76304,0 1.94754,-0.675 2.63223,-1.5 0.68469,-0.825 2.7041,-1.5 4.48759,-1.5 1.78348,0 4.31588,-0.84136 5.62755,-1.86968 1.31167,-1.02833 3.73486,-2.17951 5.38486,-2.55819 3.69219,-0.84736 10.73718,-4.78368 11.23513,-6.27751 0.20159,-0.60479 -1.30037,-2.71849 -3.3377,-4.69711 -4.13183,-4.01278 -7.89507,-4.62949 -12.76174,-2.09135 -1.57537,0.82161 -3.5309,1.49384 -4.34563,1.49384 -0.81472,0 -2.67579,0.83766 -4.13569,1.86146 -1.4599,1.02381 -4.29665,2.16072 -6.30389,2.52647 -2.00723,0.36575 -4.19983,1.32809 -4.87244,2.13853 -0.67261,0.81045 -1.84894,1.47354 -2.61405,1.47354 -1.27137,0 -3.35003,0.89137 -7.36399,3.15781 -0.825,0.46583 -2.48514,1.27435 -3.6892,1.79671 -1.20406,0.52236 -2.66281,1.83471 -3.24168,2.91633 -0.57887,1.08162 -2.47641,2.27933 -4.21676,2.66158 -1.74036,0.38224 -5.28534,2.21882 -7.87775,4.08128 -2.59241,1.86246 -5.14379,3.38629 -5.66973,3.38629 -0.52594,0 -2.01313,1.125 -3.30488,2.5 -1.29175,1.375 -3.14363,2.5 -4.1153,2.5 -0.97167,0 -2.02998,0.42605 -2.35181,0.94679 -0.86673,1.40239 -9.01721,6.75476 -11.47286,7.53416 -3.64387,1.15652 -6.09155,4.53995 -5.37778,7.4337 0.83181,3.37228 5.05865,10.08535 6.35017,10.08535 0.55403,0 2.8657,-1.2375 5.13704,-2.75 z m 128.33054,1.75 c 0.33992,-0.55 0.005,-1 -0.7452,-1 -0.74978,0 -3.58884,-1.44617 -6.30902,-3.2137 -12.54901,-8.15418 -15.63712,-9.36963 -23.44578,-9.22804 -3.575,0.0648 -9.2,0.84971 -12.5,1.74418 -10.03202,2.71921 -25.5,1.8318 -25.5,-1.46296 0,-0.46171 -0.675,-0.83948 -1.5,-0.83948 -0.825,0 -1.5,-0.38705 -1.5,-0.86012 0,-0.87646 -4.86358,-6.16828 -8.69534,-9.46096 -2.06409,-1.7737 -2.2278,-1.75253 -6.29321,0.81385 l -4.17399,2.63493 5.08127,4.7956 c 2.7947,2.63758 5.08127,5.22466 5.08127,5.74906 0,2.161 5.74342,6.2956 9.52269,6.85523 2.18752,0.32393 4.76582,0.81838 5.72955,1.09878 2.1388,0.6223 16.85659,-1.50456 18.24776,-2.63696 1.40671,-1.14506 12.22734,-3.00165 18.08625,-3.10322 5.47986,-0.095 9.17932,1.08493 13.76013,4.38871 6.01558,4.33858 13.61927,6.20774 15.15362,3.7251 z m -99.59968,-11.76905 c 0.0938,-3.07733 -0.0616,-3.22958 -2.65032,-2.59603 -4.05943,0.99349 -4.32844,2.22507 -1.39335,6.37921 2.45118,3.46925 2.69063,3.58655 3.29367,1.61355 0.35768,-1.17022 0.69518,-3.59875 0.75,-5.39673 z m 98.59968,1.76905 c -0.33992,-0.55 -1.23433,-1 -1.98759,-1 -0.75325,0 -1.9642,-0.57507 -2.69098,-1.27793 -0.72679,-0.70286 -4.88264,-3.00233 -9.23522,-5.10994 -7.41648,-3.5912 -8.48479,-3.83046 -17,-3.80734 -4.99742,0.0136 -10.353,0.51305 -11.90131,1.10994 -6.64636,2.56228 -13.21748,0.5103 -21.11634,-6.59406 -5.07543,-4.56492 -5.94587,-5.00315 -7.88682,-3.97068 -4.82183,2.56492 -4.82538,2.58217 -1.43154,6.95567 1.78739,2.30333 4.01518,4.76185 4.95065,5.46338 0.93546,0.70153 2.44527,2.01994 3.35513,2.9298 2.50588,2.50588 11.9036,2.65461 22.43944,0.35513 12.46999,-2.72162 19.96245,-1.96209 29.78398,3.01928 5.52825,2.80386 14.0615,4.09636 12.7206,1.92675 z m -0.0818,-7.60699 c 2.39004,-0.91714 1.89875,-1.87457 -1.04955,-2.04536 -1.44645,-0.0838 -2.90864,-0.56232 -3.24929,-1.0634 -1.14919,-1.69039 -19.631,-8.38807 -24.14391,-8.74958 -2.4615,-0.19718 -6.81318,0.10658 -9.67039,0.67503 -6.87185,1.36717 -11.145,0.44276 -15.23919,-3.29671 -4.48116,-4.0929 -7.00055,-4.94858 -10.43587,-3.5444 l -2.81407,1.15025 5.2412,5.15943 c 6.32275,6.22409 11.64984,8.03666 18.2392,6.20599 5.47403,-1.52081 18.14649,-1.87093 22.10029,-0.61058 1.70685,0.54408 5.57837,2.02947 8.60337,3.30085 8.55339,3.59491 9.7105,3.85753 12.41821,2.81848 z M 172.6906,186.86221 c 2.02618,-1.375 4.03553,-2.5 4.46524,-2.5 0.4297,0 1.83815,-1.125 3.1299,-2.5 1.29175,-1.375 3.16106,-2.5 4.15403,-2.5 0.99297,0 4.17703,-1.79806 7.07568,-3.9957 2.89866,-2.19763 5.64931,-3.99763 6.11256,-4 0.46325,-0.002 1.98644,-0.9043 3.38486,-2.0043 1.39842,-1.1 3.6069,-2 4.90773,-2 1.37215,0 2.36514,-0.59387 2.36514,-1.4145 0,-1.44264 5.70149,-5.02989 12,-7.55013 1.925,-0.77026 4.57319,-2.21832 5.88486,-3.21792 1.31167,-0.9996 3.58816,-1.81745 5.05887,-1.81745 1.47071,0 3.54752,-0.6677 4.61514,-1.48378 1.06762,-0.81607 3.62863,-1.95842 5.69113,-2.53854 4.19253,-1.17924 4.82296,-2.46383 1.62019,-3.30138 -3.1269,-0.8177 -18.03199,1.07553 -22.20958,2.82104 -1.98227,0.82824 -5.07934,1.43032 -6.88237,1.33794 -5.74114,-0.29414 -16.07436,1.18765 -22.57854,3.23778 -5.67698,1.7894 -8.01421,3.29315 -19.50994,12.55245 -2.1301,1.71571 -1.98122,7.46021 0.21203,8.18141 1.08394,0.35642 1.25966,-0.24966 0.775,-2.67299 -0.74553,-3.72765 0.82348,-4.26114 1.74412,-0.59303 0.84886,3.38215 2.57128,2.1611 2.6095,-1.84992 0.0273,-2.86778 0.1412,-2.98841 1.12432,-1.19098 0.60166,1.1 1.79898,2.5625 2.66072,3.25 1.37761,1.09906 1.30935,1.25 -0.5653,1.25 -1.17267,0 -2.4215,0.46823 -2.77519,1.04052 -0.35369,0.57229 -2.38152,2.13795 -4.50629,3.47926 -2.76704,1.74675 -4.16033,3.50866 -4.91036,6.20948 -1.97741,7.12055 -1.36832,7.64896 4.34655,3.77074 z m 9.30539,-18.5 c -0.28766,-1.1 -0.16762,-2 0.26674,-2 0.43436,0 1.0251,0.9 1.31276,2 0.28765,1.1 0.16762,2 -0.26674,2 -0.43436,0 -1.0251,-0.9 -1.31276,-2 z m 3.78975,-1 c -0.33992,-0.55 -0.14148,-1 0.44098,-1 0.58246,0 1.05902,0.45 1.05902,1 0,0.55 -0.19844,1 -0.44098,1 -0.24254,0 -0.7191,-0.45 -1.05902,-1 z m 2.5,-2 c 0,-0.55 0.19844,-1 0.44098,-1 0.24254,0 0.7191,0.45 1.05902,1 0.33992,0.55 0.14148,1 -0.44098,1 -0.58246,0 -1.05902,-0.45 -1.05902,-1 z m 116.80902,16.1424 c 2.06417,-0.22455 0.30342,-2.1424 -1.96691,-2.1424 -1.12192,0 -3.45786,-0.60096 -5.19098,-1.33546 -1.73312,-0.7345 -4.72613,-1.90735 -6.65113,-2.60633 -1.925,-0.69897 -5.2265,-1.90924 -7.33666,-2.68947 -2.64677,-0.97865 -6.29134,-1.26478 -11.75151,-0.92261 -7.01601,0.43966 -8.43434,0.21978 -12.48917,-1.93619 -3.78302,-2.01146 -4.90715,-2.22432 -6.49848,-1.23052 -2.71618,1.69628 -2.46873,2.31268 2.32582,5.79367 3.99134,2.89783 4.58474,3.03711 9.75,2.28836 9.27805,-1.34493 16.11084,-0.77598 23.02806,1.91749 9.6254,3.748 9.24568,3.68321 16.78096,2.86346 z m -1.44533,-9.10609 c 0.71508,-0.71508 0.029,-1.03631 -2.21335,-1.03631 -1.78731,0 -4.46481,-0.62838 -5.95,-1.3964 -1.48519,-0.76802 -2.92534,-1.37329 -3.20034,-1.34504 -0.275,0.0283 -2.05962,-0.75515 -3.96582,-1.74089 -3.35627,-1.73559 -5.97549,-1.998 -16.53418,-1.65654 -2.75,0.0889 -6.07946,0.0441 -7.39879,-0.0997 -2.90218,-0.31627 -3.89512,1.67474 -1.39347,2.79416 0.98574,0.44109 6.33556,0.83403 11.88848,0.8732 6.51942,0.046 10.63078,0.51484 11.60509,1.3234 4.42815,3.67485 14.4393,5.00722 17.16238,2.28413 z m -144.48869,-8.95298 c -0.0687,-0.59583 -0.19088,-1.64583 -0.2714,-2.33333 -0.0867,-0.74059 -1.25838,-1.13269 -2.875,-0.96215 -3.90136,0.41157 -3.55236,-2.3731 0.3964,-3.16285 4.83771,-0.96754 6.14691,-0.77597 5.53817,0.81039 -0.30295,0.78947 -0.0136,1.63161 0.64301,1.87143 0.8747,0.31948 0.90741,0.92229 0.12238,2.25509 -1.26926,2.15489 -3.37637,3.05703 -3.55356,1.52142 z m -6.25,-9.88108 c -0.27117,-0.43876 -0.15274,-1.34835 0.26317,-2.02131 0.94561,-1.53003 8.26864,-0.21052 8.87166,1.59855 0.46127,1.38381 -8.29054,1.78885 -9.13483,0.42276 z m 6.99907,-4.0015 c -0.40816,-0.66041 -0.44548,-1.68069 -0.0829,-2.26728 0.36253,-0.5866 -0.12966,-1.64333 -1.09376,-2.3483 -1.66482,-1.21735 -1.31153,-3.58517 0.53493,-3.58517 1.24563,0 7.01771,5.00813 7.01771,6.08889 0,0.50111 -1.0875,0.91111 -2.41667,0.91111 -1.32916,0 -2.59677,0.54034 -2.81691,1.20075 -0.31144,0.93432 -0.56491,0.93432 -1.14235,0 z m 20.37593,-6.11896 c 0,-0.50502 -0.25888,-1.59283 -0.57528,-2.41736 -0.6862,-1.78821 5.71896,-5.20701 8.06718,-4.30591 2.31195,0.88718 1.79479,2.53142 -1.01828,3.23746 -1.3895,0.34874 -2.98034,1.48231 -3.53518,2.51905 -1.04544,1.95343 -2.93844,2.57623 -2.93844,0.96676 z m -15.65492,-1.62492 c -0.32569,-0.84872 -0.3415,-1.79378 -0.0351,-2.10013 0.87571,-0.87572 2.69007,0.60965 2.69007,2.20228 0,1.91885 -1.90756,1.84546 -2.65492,-0.10215 z m 4.31193,-3.18304 c -0.62669,-3.86184 0.36941,-5.99357 2.25586,-4.82768 0.59792,0.36954 1.08713,1.54533 1.08713,2.61287 0,2.56343 1.64439,2.47395 3.05746,-0.16638 1.82157,-3.40365 3.53657,-0.74098 1.96558,3.05172 -1.33497,3.22291 -2.55196,3.88585 -3.31471,1.80564 -0.36666,-1 -0.72333,-1 -1.78333,0 -2.06599,1.94904 -2.61772,1.53099 -3.26799,-2.47617 z"
       inkscape:connector-curvature="0"
       id="path4295" />
    <path
       sodipodi:type="arc"
       style="fill:none;stroke:#000000;stroke-width:4;stroke-linecap:butt;stroke-linejoin:miter;stroke-miterlimit:4;stroke-opacity:1;stroke-dasharray:none"
       id="path3060-0"
       sodipodi:cx="236.18712"
       sodipodi:cy="228.68443"
       sodipodi:rx="128.01738"
       sodipodi:ry="128.01738"
       d="m 364.2045,228.68443 c 0,70.70205 -57.31533,128.01738 -128.01738,128.01738 -70.70205,0 -128.01738,-57.31533 -128.01738,-128.01738 0,-70.70204 57.31533,-128.01738 128.01738,-128.01738 70.70205,0 128.01738,57.31534 128.01738,128.01738 z"
       transform="translate(-3.9997388,3.6987305e-4)" />
  </g>
</svg>
